<svg xmlns="http://www.w3.org/2000/svg" xmlns:xlink="http://www.w3.org/1999/xlink" width="500" zoomAndPan="magnify" viewBox="0 0 375 374.999991" height="500" preserveAspectRatio="xMidYMid meet" version="1.0"><defs><g/><clipPath id="73d7d7849a"><path d="M 51.035156 51.035156 L 324.035156 51.035156 L 324.035156 324.035156 L 51.035156 324.035156 Z M 51.035156 51.035156 " clip-rule="nonzero"/></clipPath><clipPath id="101f801c47"><path d="M 187.535156 51.035156 C 112.148438 51.035156 51.035156 112.148438 51.035156 187.535156 C 51.035156 262.921875 112.148438 324.035156 187.535156 324.035156 C 262.921875 324.035156 324.035156 262.921875 324.035156 187.535156 C 324.035156 112.148438 262.921875 51.035156 187.535156 51.035156 " clip-rule="nonzero"/></clipPath><clipPath id="0222d05106"><path d="M 12.382812 148.847656 L 362.617188 148.847656 L 362.617188 226.152344 L 12.382812 226.152344 Z M 12.382812 148.847656 " clip-rule="nonzero"/></clipPath></defs><g clip-path="url(#73d7d7849a)"><g clip-path="url(#101f801c47)"><path stroke-linecap="butt" transform="matrix(0.750193, 0, 0, 0.750193, 51.034249, 51.034245)" fill="none" stroke-linejoin="miter" d="M 181.954356 0.00121516 C 81.464607 0.00121516 0.00120916 81.464613 0.00120916 181.954362 C 0.00120916 282.44411 81.464607 363.907508 181.954356 363.907508 C 282.444104 363.907508 363.907502 282.44411 363.907502 181.954362 C 363.907502 81.464613 282.444104 0.00121516 181.954356 0.00121516 " stroke="#000000" stroke-width="2" stroke-opacity="1" stroke-miterlimit="4"/></g></g><g clip-path="url(#0222d05106)"><path fill="#fbfaf9" d="M 12.382812 148.847656 L 362.617188 148.847656 L 362.617188 226.152344 L 12.382812 226.152344 Z M 12.382812 148.847656 " fill-opacity="1" fill-rule="nonzero"/></g><g fill="#000000" fill-opacity="1"><g transform="translate(36.346943, 197.313474)"><g><path d="M 52.769531 -12.328125 C 52.445312 -12.8125 51.796875 -12.921875 51.363281 -12.597656 C 45.847656 -8.703125 40.875 -4.972656 36.332031 -1.460938 C 33.25 -6.542969 25.035156 -9.894531 14.058594 -14.328125 C 12.652344 -14.867188 11.246094 -15.464844 9.785156 -16.058594 C 5.460938 -17.789062 3.945312 -20.492188 5.136719 -24.222656 C 6.757812 -29.414062 13.570312 -36.277344 22.816406 -42.171875 C 31.628906 -47.742188 40.28125 -50.878906 44.335938 -49.957031 C 45.632812 -49.6875 47.09375 -48.929688 46.660156 -45.902344 C 46.550781 -45.363281 46.984375 -44.820312 47.523438 -44.714844 C 48.121094 -44.660156 48.660156 -45.039062 48.714844 -45.632812 C 49.363281 -50.230469 46.550781 -51.582031 44.820312 -52.011719 C 34.980469 -54.230469 7.136719 -37.523438 3.136719 -24.871094 C 1.675781 -20.113281 3.730469 -16.273438 8.976562 -14.113281 C 10.433594 -13.515625 11.894531 -12.921875 13.300781 -12.382812 C 25.085938 -7.625 32.332031 -4.488281 34.710938 -0.214844 C 15.570312 14.761719 5.839844 25.464844 7.460938 30.0625 C 7.730469 30.820312 8.542969 31.953125 10.8125 31.953125 C 10.976562 31.953125 11.191406 31.953125 11.355469 31.953125 C 18.597656 31.414062 34.386719 20.601562 37.414062 5.296875 C 37.792969 3.515625 37.683594 1.890625 37.253906 0.433594 C 41.847656 -3.082031 46.929688 -6.867188 52.554688 -10.867188 C 53.039062 -11.246094 53.148438 -11.894531 52.769531 -12.328125 Z M 35.359375 4.921875 C 32.441406 19.519531 17.140625 29.414062 11.191406 29.898438 C 10.652344 29.898438 9.625 29.898438 9.460938 29.359375 C 8.867188 27.738281 11.894531 23.140625 17.195312 17.789062 C 21.679688 13.191406 27.789062 7.839844 35.414062 1.839844 C 35.628906 2.8125 35.578125 3.785156 35.359375 4.921875 Z M 35.359375 4.921875 "/></g></g></g><g fill="#000000" fill-opacity="1"><g transform="translate(87.053971, 197.313474)"><g><path d="M 22.601562 -12.003906 C 22.113281 -12.21875 21.464844 -12.003906 21.25 -11.515625 C 17.140625 -3.136719 14.058594 -0.488281 12.597656 -0.757812 C 12.003906 -0.863281 10.054688 -2 9.570312 -11.460938 C 9.570312 -11.894531 9.246094 -12.273438 8.867188 -12.382812 C 8.433594 -12.488281 7.949219 -12.382812 7.730469 -12.003906 C 7.40625 -11.625 7.082031 -11.191406 6.757812 -10.707031 C 5.40625 -8.867188 3.621094 -6.378906 1.460938 -4.054688 C 1.136719 -3.675781 0.863281 -3.460938 0.703125 -3.351562 C 0.324219 -5.246094 2.324219 -12.488281 5.515625 -14.761719 C 6.433594 -15.410156 7.675781 -15.894531 9.355469 -13.949219 C 9.730469 -13.515625 10.382812 -13.460938 10.8125 -13.839844 C 11.246094 -14.164062 11.300781 -14.867188 10.976562 -15.300781 C 8.921875 -17.679688 6.976562 -17.625 5.675781 -17.195312 C 1.515625 -15.734375 -1.296875 -7.730469 -1.40625 -4.054688 C -1.460938 -2.542969 -1.027344 -1.566406 -0.164062 -1.242188 C 1.191406 -0.703125 2.542969 -2.164062 2.972656 -2.648438 C 4.8125 -4.648438 6.488281 -6.8125 7.675781 -8.488281 C 8.273438 -2.324219 9.730469 0.757812 12.164062 1.296875 C 12.382812 1.296875 12.597656 1.351562 12.8125 1.351562 C 16.492188 1.351562 20.4375 -5.082031 23.085938 -10.597656 C 23.355469 -11.136719 23.140625 -11.734375 22.601562 -12.003906 Z M 22.601562 -12.003906 "/></g></g></g><g fill="#000000" fill-opacity="1"><g transform="translate(107.163791, 197.313474)"><g><path d="M 30.492188 -12.058594 C 30.0625 -12.433594 29.359375 -12.382812 28.980469 -11.949219 C 24.65625 -6.867188 21.734375 -5.570312 20.4375 -6.054688 C 19.300781 -6.488281 18.652344 -8.652344 18.707031 -12.058594 C 18.707031 -12.652344 18.761719 -14.113281 17.570312 -14.382812 C 16.21875 -14.707031 15.246094 -13.136719 12.382812 -7.136719 C 11.894531 -6.109375 11.460938 -5.191406 11.191406 -4.648438 C 10.867188 -4.054688 10.652344 -3.730469 10.488281 -3.570312 C 10.21875 -4.109375 9.839844 -5.515625 9.894531 -7.625 C 9.894531 -8.703125 9.894531 -9.625 9.949219 -10.382812 C 10.003906 -12.761719 10.054688 -13.625 9.082031 -14.003906 C 8.21875 -14.273438 7.625 -13.460938 7.460938 -13.191406 C 5.082031 -9.949219 2.972656 -6.648438 0.757812 -2.648438 C 1.621094 -6.378906 3.191406 -11.734375 5.191406 -16.21875 C 5.40625 -16.761719 5.191406 -17.410156 4.648438 -17.625 C 4.109375 -17.84375 3.515625 -17.625 3.242188 -17.085938 C 1.730469 -13.570312 0.214844 -9.082031 -0.917969 -4.648438 C -2.703125 2.488281 -2 2.8125 -1.351562 3.136719 C -1.191406 3.191406 -1.027344 3.242188 -0.863281 3.242188 C -0.324219 3.242188 0.164062 2.867188 0.59375 2.054688 C 3.191406 -2.917969 5.351562 -6.597656 7.839844 -10.21875 C 7.839844 -9.460938 7.785156 -8.597656 7.785156 -7.625 C 7.785156 -5.949219 8.003906 -1.945312 10.003906 -1.40625 C 11.625 -1.027344 12.652344 -3.027344 13.03125 -3.675781 C 13.355469 -4.269531 13.789062 -5.191406 14.273438 -6.21875 C 14.867188 -7.460938 15.839844 -9.515625 16.652344 -10.921875 C 16.761719 -7.136719 17.789062 -4.8125 19.734375 -4.109375 C 22.382812 -3.082031 26.007812 -5.296875 30.601562 -10.597656 C 30.980469 -11.03125 30.925781 -11.679688 30.492188 -12.058594 Z M 30.492188 -12.058594 "/></g></g></g><g fill="#000000" fill-opacity="1"><g transform="translate(135.328352, 197.313474)"><g><path d="M 22.601562 -12.003906 C 22.113281 -12.21875 21.464844 -12.003906 21.25 -11.515625 C 17.140625 -3.136719 14.058594 -0.488281 12.597656 -0.757812 C 12.003906 -0.863281 10.054688 -2 9.570312 -11.460938 C 9.570312 -11.894531 9.246094 -12.273438 8.867188 -12.382812 C 8.433594 -12.488281 7.949219 -12.382812 7.730469 -12.003906 C 7.40625 -11.625 7.082031 -11.191406 6.757812 -10.707031 C 5.40625 -8.867188 3.621094 -6.378906 1.460938 -4.054688 C 1.136719 -3.675781 0.863281 -3.460938 0.703125 -3.351562 C 0.324219 -5.246094 2.324219 -12.488281 5.515625 -14.761719 C 6.433594 -15.410156 7.675781 -15.894531 9.355469 -13.949219 C 9.730469 -13.515625 10.382812 -13.460938 10.8125 -13.839844 C 11.246094 -14.164062 11.300781 -14.867188 10.976562 -15.300781 C 8.921875 -17.679688 6.976562 -17.625 5.675781 -17.195312 C 1.515625 -15.734375 -1.296875 -7.730469 -1.40625 -4.054688 C -1.460938 -2.542969 -1.027344 -1.566406 -0.164062 -1.242188 C 1.191406 -0.703125 2.542969 -2.164062 2.972656 -2.648438 C 4.8125 -4.648438 6.488281 -6.8125 7.675781 -8.488281 C 8.273438 -2.324219 9.730469 0.757812 12.164062 1.296875 C 12.382812 1.296875 12.597656 1.351562 12.8125 1.351562 C 16.492188 1.351562 20.4375 -5.082031 23.085938 -10.597656 C 23.355469 -11.136719 23.140625 -11.734375 22.601562 -12.003906 Z M 22.601562 -12.003906 "/></g></g></g><g fill="#000000" fill-opacity="1"><g transform="translate(155.438172, 197.313474)"><g><path d="M 21.734375 -12.058594 C 21.25 -12.328125 20.601562 -12.164062 20.328125 -11.625 C 19.03125 -9.40625 15.625 -3.40625 13.679688 -3.621094 C 13.300781 -3.675781 12.21875 -4.21875 11.136719 -8.003906 C 10.382812 -10.652344 9.355469 -13.136719 7.351562 -13.246094 C 5.894531 -13.355469 4.269531 -12.21875 1.785156 -7.570312 C 2.433594 -9.894531 3.136719 -12.21875 3.675781 -14.113281 C 3.894531 -14.816406 4.054688 -15.410156 4.21875 -16.003906 C 4.378906 -16.542969 4.054688 -17.140625 3.515625 -17.300781 C 2.972656 -17.464844 2.378906 -17.140625 2.214844 -16.542969 C 2.054688 -16.003906 1.890625 -15.355469 1.675781 -14.707031 C 0.269531 -9.894531 -1.839844 -2.59375 -2.378906 1.839844 C -2.433594 2.324219 -2.109375 2.8125 -1.621094 2.917969 C -1.515625 2.972656 -1.460938 2.972656 -1.351562 2.972656 C -0.917969 2.972656 -0.539062 2.703125 -0.378906 2.324219 C 4.703125 -10.328125 6.757812 -11.191406 7.246094 -11.191406 C 7.351562 -11.191406 8.109375 -10.976562 9.136719 -7.40625 C 10.21875 -3.675781 11.625 -1.785156 13.460938 -1.566406 C 16.21875 -1.242188 18.707031 -4.648438 22.113281 -10.597656 C 22.4375 -11.136719 22.222656 -11.734375 21.734375 -12.058594 Z M 21.734375 -12.058594 "/></g></g></g><g fill="#000000" fill-opacity="1"><g transform="translate(174.737121, 197.313474)"><g><path d="M 45.632812 -31.898438 C 44.929688 -32.871094 41.792969 -33.46875 8.21875 -32.710938 C 9.300781 -37.089844 10.273438 -41.039062 11.136719 -44.226562 C 11.300781 -44.820312 10.976562 -45.363281 10.433594 -45.523438 C 9.894531 -45.6875 9.300781 -45.363281 9.136719 -44.820312 C 8.21875 -41.414062 7.191406 -37.304688 6.054688 -32.65625 C 3.082031 -32.601562 -0.164062 -32.546875 -3.675781 -32.441406 C -8.488281 -32.332031 -12.273438 -32.222656 -13.734375 -32.222656 C -14.328125 -32.222656 -14.816406 -31.738281 -14.816406 -31.195312 C -14.816406 -30.601562 -14.328125 -30.117188 -13.734375 -30.117188 C -12.21875 -30.167969 -8.433594 -30.222656 -3.621094 -30.386719 C -1.082031 -30.441406 2.054688 -30.492188 5.570312 -30.601562 C 3.242188 -20.761719 0.59375 -8.976562 -1.785156 2.542969 C -3.515625 10.976562 -4.921875 18.273438 -5.839844 23.628906 C -6.324219 26.4375 -6.648438 28.65625 -6.8125 30.167969 C -7.027344 32.222656 -7.136719 33.414062 -6.109375 33.792969 C -5.949219 33.792969 -5.839844 33.847656 -5.675781 33.847656 C -4.757812 33.847656 -4.269531 32.546875 -3.839844 31.359375 C -3.621094 30.820312 -3.894531 30.222656 -4.433594 30.007812 C -4.542969 30.007812 -4.597656 29.953125 -4.703125 29.953125 C -4.164062 25.734375 -2.542969 16.273438 0.59375 1.351562 C 2.917969 -9.949219 5.460938 -21.25 7.730469 -30.65625 C 22.601562 -30.980469 41.902344 -31.25 44.117188 -30.492188 C 44.496094 -30.167969 44.984375 -30.167969 45.417969 -30.441406 C 45.847656 -30.765625 45.957031 -31.414062 45.632812 -31.898438 Z M 45.632812 -31.898438 "/></g></g></g><g fill="#000000" fill-opacity="1"><g transform="translate(181.926928, 197.313474)"><g><path d="M 25.574219 -12.328125 C 25.085938 -12.652344 24.4375 -12.488281 24.167969 -12.003906 C 16.492188 0.378906 13.789062 0.109375 13.515625 0.0546875 C 12.976562 -0.109375 12.382812 -1.191406 12.21875 -3.839844 C 12.164062 -5.027344 11.894531 -8.597656 9.515625 -8.921875 C 6.757812 -9.300781 3.460938 -4.488281 0.488281 1.730469 C 2.324219 -6.488281 4.972656 -17.789062 6.921875 -25.789062 C 14.164062 -38.820312 17.84375 -48.605469 16.328125 -50.714844 C 16.003906 -51.203125 15.464844 -51.363281 14.921875 -51.257812 C 12.597656 -50.824219 8.976562 -42.929688 6.542969 -32.925781 C 6.433594 -32.546875 -3.242188 6.976562 -3.570312 11.839844 C -3.570312 12.382812 -3.242188 12.8125 -2.703125 12.921875 C -2.648438 12.921875 -2.59375 12.921875 -2.542969 12.921875 C -2.109375 12.921875 -1.675781 12.652344 -1.515625 12.273438 C 3.191406 -1.242188 7.785156 -6.867188 9.136719 -6.867188 C 9.191406 -6.867188 9.191406 -6.867188 9.191406 -6.867188 C 9.40625 -6.867188 10.003906 -6.21875 10.164062 -3.730469 C 10.21875 -2.433594 10.488281 1.40625 12.976562 2.054688 C 14.058594 2.324219 17.246094 3.136719 25.898438 -10.921875 C 26.222656 -11.410156 26.058594 -12.058594 25.574219 -12.328125 Z M 14.542969 -48.28125 C 14.113281 -46.121094 12.597656 -41.46875 8.976562 -34.171875 C 11.03125 -41.957031 13.246094 -46.445312 14.542969 -48.28125 Z M 14.542969 -48.28125 "/></g></g></g><g fill="#000000" fill-opacity="1"><g transform="translate(205.226217, 197.313474)"><g><path d="M 22.601562 -12.003906 C 22.113281 -12.21875 21.464844 -12.003906 21.25 -11.515625 C 17.140625 -3.136719 14.058594 -0.488281 12.597656 -0.757812 C 12.003906 -0.863281 10.054688 -2 9.570312 -11.460938 C 9.570312 -11.894531 9.246094 -12.273438 8.867188 -12.382812 C 8.433594 -12.488281 7.949219 -12.382812 7.730469 -12.003906 C 7.40625 -11.625 7.082031 -11.191406 6.757812 -10.707031 C 5.40625 -8.867188 3.621094 -6.378906 1.460938 -4.054688 C 1.136719 -3.675781 0.863281 -3.460938 0.703125 -3.351562 C 0.324219 -5.246094 2.324219 -12.488281 5.515625 -14.761719 C 6.433594 -15.410156 7.675781 -15.894531 9.355469 -13.949219 C 9.730469 -13.515625 10.382812 -13.460938 10.8125 -13.839844 C 11.246094 -14.164062 11.300781 -14.867188 10.976562 -15.300781 C 8.921875 -17.679688 6.976562 -17.625 5.675781 -17.195312 C 1.515625 -15.734375 -1.296875 -7.730469 -1.40625 -4.054688 C -1.460938 -2.542969 -1.027344 -1.566406 -0.164062 -1.242188 C 1.191406 -0.703125 2.542969 -2.164062 2.972656 -2.648438 C 4.8125 -4.648438 6.488281 -6.8125 7.675781 -8.488281 C 8.273438 -2.324219 9.730469 0.757812 12.164062 1.296875 C 12.382812 1.296875 12.597656 1.351562 12.8125 1.351562 C 16.492188 1.351562 20.4375 -5.082031 23.085938 -10.597656 C 23.355469 -11.136719 23.140625 -11.734375 22.601562 -12.003906 Z M 22.601562 -12.003906 "/></g></g></g><g fill="#000000" fill-opacity="1"><g transform="translate(225.336037, 197.313474)"><g/></g></g><g fill="#000000" fill-opacity="1"><g transform="translate(241.932051, 197.313474)"><g><path d="M 53.039062 -55.363281 C 53.203125 -55.90625 52.824219 -56.5 52.285156 -56.609375 C 51.742188 -56.769531 51.148438 -56.445312 51.039062 -55.851562 C 43.363281 -25.789062 29.140625 -15.410156 21.300781 -11.894531 C 19.140625 -10.921875 16.597656 -10.054688 14.164062 -9.625 C 16.058594 -17.679688 17.949219 -25.628906 19.464844 -31.847656 C 21.03125 -38.28125 22.328125 -43.847656 23.304688 -47.851562 C 23.410156 -48.390625 23.03125 -48.984375 22.492188 -49.09375 C 21.953125 -49.203125 21.355469 -48.878906 21.25 -48.335938 C 20.328125 -44.335938 18.976562 -38.765625 17.410156 -32.332031 C 15.839844 -25.789062 14.058594 -18.382812 12.328125 -11.03125 C 11.460938 -11.734375 10.597656 -12.273438 9.679688 -12.652344 C 6.488281 -14.058594 4.054688 -14.113281 3.082031 -12.8125 C 2.488281 -12.058594 2.542969 -10.976562 3.296875 -10.003906 C 4.488281 -8.542969 6.867188 -7.515625 9.730469 -7.300781 C 10.273438 -7.300781 10.867188 -7.246094 11.460938 -7.300781 C 10.328125 -2.488281 9.246094 2.214844 8.328125 6.542969 C 6.867188 13.085938 5.894531 18.003906 5.296875 21.519531 C 4.324219 27.359375 4.542969 28.546875 5.675781 28.925781 C 5.785156 28.980469 5.949219 29.035156 6.109375 29.035156 C 7.136719 29.035156 7.949219 27.574219 9.300781 24.546875 C 9.515625 24.007812 9.300781 23.410156 8.757812 23.195312 C 8.21875 22.925781 7.625 23.195312 7.40625 23.734375 C 7.191406 24.113281 7.027344 24.492188 6.867188 24.761719 C 7.570312 19.246094 10.433594 6.273438 13.515625 -6.976562 C 16.4375 -3.621094 19.246094 1.191406 22.058594 5.949219 C 27.195312 14.597656 32.496094 23.574219 38.820312 24.925781 C 39.359375 25.085938 39.957031 25.140625 40.496094 25.140625 C 42.28125 25.140625 44.066406 24.546875 45.796875 23.355469 C 46.226562 23.03125 46.335938 22.382812 46.011719 21.898438 C 45.6875 21.410156 45.039062 21.300781 44.605469 21.628906 C 42.765625 22.871094 41.039062 23.304688 39.253906 22.925781 C 33.792969 21.734375 28.765625 13.136719 23.84375 4.867188 C 21.085938 0.164062 18.382812 -4.378906 15.570312 -7.785156 C 17.679688 -8.21875 19.898438 -8.976562 22.167969 -10.003906 C 30.332031 -13.625 45.199219 -24.382812 53.039062 -55.363281 Z M 5.730469 -10.597656 C 5.082031 -11.03125 4.8125 -11.410156 4.757812 -11.570312 C 5.082031 -11.734375 6.273438 -11.894531 8.867188 -10.757812 C 9.625 -10.433594 10.382812 -9.949219 11.136719 -9.355469 C 9.082031 -9.300781 7.191406 -9.625 5.730469 -10.597656 Z M 5.730469 -10.597656 "/></g></g></g><g fill="#000000" fill-opacity="1"><g transform="translate(285.611469, 197.313474)"><g><path d="M 21.734375 -12.058594 C 21.25 -12.328125 20.601562 -12.164062 20.328125 -11.625 C 19.03125 -9.40625 15.625 -3.40625 13.679688 -3.621094 C 13.300781 -3.675781 12.21875 -4.21875 11.136719 -8.003906 C 10.382812 -10.652344 9.355469 -13.136719 7.351562 -13.246094 C 5.894531 -13.355469 4.269531 -12.21875 1.785156 -7.570312 C 2.433594 -9.894531 3.136719 -12.21875 3.675781 -14.113281 C 3.894531 -14.816406 4.054688 -15.410156 4.21875 -16.003906 C 4.378906 -16.542969 4.054688 -17.140625 3.515625 -17.300781 C 2.972656 -17.464844 2.378906 -17.140625 2.214844 -16.542969 C 2.054688 -16.003906 1.890625 -15.355469 1.675781 -14.707031 C 0.269531 -9.894531 -1.839844 -2.59375 -2.378906 1.839844 C -2.433594 2.324219 -2.109375 2.8125 -1.621094 2.917969 C -1.515625 2.972656 -1.460938 2.972656 -1.351562 2.972656 C -0.917969 2.972656 -0.539062 2.703125 -0.378906 2.324219 C 4.703125 -10.328125 6.757812 -11.191406 7.246094 -11.191406 C 7.351562 -11.191406 8.109375 -10.976562 9.136719 -7.40625 C 10.21875 -3.675781 11.625 -1.785156 13.460938 -1.566406 C 16.21875 -1.242188 18.707031 -4.648438 22.113281 -10.597656 C 22.4375 -11.136719 22.222656 -11.734375 21.734375 -12.058594 Z M 21.734375 -12.058594 "/></g></g></g><g fill="#000000" fill-opacity="1"><g transform="translate(304.910418, 197.313474)"><g><path d="M 19.574219 -11.734375 C 19.085938 -12.109375 18.4375 -12.003906 18.113281 -11.570312 C 15.839844 -8.652344 12.109375 -6.21875 9.246094 -6.757812 C 9.300781 -7.136719 9.355469 -7.515625 9.355469 -7.894531 C 9.730469 -14.003906 7.839844 -15.246094 6.703125 -15.464844 C 5.40625 -15.734375 4.054688 -14.761719 3.40625 -13.136719 C 3.136719 -13.246094 2.8125 -13.246094 2.542969 -13.03125 C 0.378906 -11.679688 -1.40625 -8.21875 -0.433594 -4.488281 C 0.214844 -2.269531 1.730469 -0.863281 3.730469 -0.863281 C 5.621094 -0.863281 7.625 -2.269531 8.652344 -4.757812 C 12.433594 -3.945312 16.976562 -6.757812 19.734375 -10.273438 C 20.113281 -10.757812 20.003906 -11.410156 19.574219 -11.734375 Z M 3.785156 -2.917969 C 3.730469 -2.917969 3.730469 -2.917969 3.730469 -2.917969 C 2.378906 -2.972656 1.785156 -4.269531 1.621094 -5.027344 C 1.082031 -6.867188 1.515625 -9.40625 3.027344 -10.8125 C 3.136719 -8.976562 4.164062 -6.976562 6.757812 -5.570312 C 6 -3.839844 4.703125 -2.917969 3.785156 -2.917969 Z M 7.300781 -8.003906 C 7.246094 -7.894531 7.246094 -7.785156 7.246094 -7.675781 C 5.191406 -9.027344 4.867188 -10.757812 5.246094 -12.109375 C 5.515625 -12.976562 6.054688 -13.410156 6.324219 -13.410156 C 6.597656 -13.355469 7.515625 -12.328125 7.300781 -8.003906 Z M 7.300781 -8.003906 "/></g></g></g><g fill="#000000" fill-opacity="1"><g transform="translate(322.209191, 197.313474)"><g><path d="M 15.894531 -50.660156 C 15.515625 -51.148438 14.976562 -51.363281 14.4375 -51.308594 C 11.355469 -50.769531 8.054688 -39.253906 7.136719 -35.738281 C 4.433594 -25.410156 1.027344 -10.757812 -1.730469 2.378906 C -3.027344 8.597656 -4.054688 13.839844 -4.703125 17.625 C -5.785156 24.007812 -5.621094 24.816406 -4.597656 25.085938 C -4.488281 25.140625 -4.378906 25.140625 -4.269531 25.140625 C -3.296875 25.140625 -2.8125 23.84375 -2.324219 22.4375 C -2.164062 21.898438 -2.433594 21.300781 -2.972656 21.140625 C -3.027344 21.085938 -3.082031 21.085938 -3.136719 21.085938 C -2 13.300781 2.648438 -9.355469 7.40625 -28.332031 C 7.40625 -28.386719 7.460938 -28.441406 7.515625 -28.492188 C 14.542969 -39.632812 17.300781 -48.5 15.894531 -50.660156 Z M 9.246094 -35.628906 C 11.300781 -43.253906 13.136719 -46.929688 14.113281 -48.445312 C 13.894531 -46.445312 12.707031 -42.117188 9.246094 -35.628906 Z M 9.246094 -35.628906 "/></g></g></g><g fill="#000000" fill-opacity="1"><g transform="translate(330.426118, 197.313474)"><g><path d="M 15.894531 -50.660156 C 15.515625 -51.148438 14.976562 -51.363281 14.4375 -51.308594 C 11.355469 -50.769531 8.054688 -39.253906 7.136719 -35.738281 C 4.433594 -25.410156 1.027344 -10.757812 -1.730469 2.378906 C -3.027344 8.597656 -4.054688 13.839844 -4.703125 17.625 C -5.785156 24.007812 -5.621094 24.816406 -4.597656 25.085938 C -4.488281 25.140625 -4.378906 25.140625 -4.269531 25.140625 C -3.296875 25.140625 -2.8125 23.84375 -2.324219 22.4375 C -2.164062 21.898438 -2.433594 21.300781 -2.972656 21.140625 C -3.027344 21.085938 -3.082031 21.085938 -3.136719 21.085938 C -2 13.300781 2.648438 -9.355469 7.40625 -28.332031 C 7.40625 -28.386719 7.460938 -28.441406 7.515625 -28.492188 C 14.542969 -39.632812 17.300781 -48.5 15.894531 -50.660156 Z M 9.246094 -35.628906 C 11.300781 -43.253906 13.136719 -46.929688 14.113281 -48.445312 C 13.894531 -46.445312 12.707031 -42.117188 9.246094 -35.628906 Z M 9.246094 -35.628906 "/></g></g></g><g fill="#000000" fill-opacity="1"><g transform="translate(122.663618, 99.632099)"><g><path d="M -3.03125 -9.234375 L 0.53125 -10.953125 C 1.820312 -11.578125 3.085938 -11.679688 4.328125 -11.265625 C 5.566406 -10.847656 6.488281 -10.007812 7.09375 -8.75 C 7.707031 -7.5 7.78125 -6.257812 7.3125 -5.03125 C 6.851562 -3.800781 5.96875 -2.867188 4.65625 -2.234375 L 1.140625 -0.546875 Z M -0.9375 -8.609375 L 1.984375 -2.5625 L 4.125 -3.59375 C 4.96875 -4 5.535156 -4.625 5.828125 -5.46875 C 6.117188 -6.3125 6.050781 -7.171875 5.625 -8.046875 C 5.207031 -8.921875 4.566406 -9.503906 3.703125 -9.796875 C 2.847656 -10.085938 1.988281 -10.023438 1.125 -9.609375 Z M -0.9375 -8.609375 "/></g></g></g><g fill="#000000" fill-opacity="1"><g transform="translate(140.60096, 91.733792)"><g><path d="M 5.25 -10.296875 L 0.234375 -8.671875 L 1.03125 -6.203125 L 5.5 -7.65625 L 5.953125 -6.25 L 1.484375 -4.796875 L 2.296875 -2.265625 L 7.453125 -3.9375 L 7.90625 -2.5625 L 1.203125 -0.390625 L -1.765625 -9.5625 L 4.796875 -11.6875 Z M 5.25 -10.296875 "/></g></g></g><g fill="#000000" fill-opacity="1"><g transform="translate(157.896567, 86.747901)"><g><path d="M 2.5625 -10.34375 C 3.78125 -10.570312 4.945312 -10.457031 6.0625 -10 L 5.65625 -8.46875 C 4.59375 -8.875 3.617188 -8.992188 2.734375 -8.828125 C 2.253906 -8.734375 1.890625 -8.578125 1.640625 -8.359375 C 1.398438 -8.140625 1.304688 -7.867188 1.359375 -7.546875 C 1.421875 -7.234375 1.597656 -6.988281 1.890625 -6.8125 C 2.191406 -6.644531 2.539062 -6.546875 2.9375 -6.515625 C 3.34375 -6.484375 3.773438 -6.425781 4.234375 -6.34375 C 4.703125 -6.269531 5.144531 -6.179688 5.5625 -6.078125 C 5.976562 -5.984375 6.34375 -5.769531 6.65625 -5.4375 C 6.96875 -5.101562 7.175781 -4.671875 7.28125 -4.140625 C 7.4375 -3.304688 7.234375 -2.578125 6.671875 -1.953125 C 6.109375 -1.335938 5.296875 -0.929688 4.234375 -0.734375 C 3.503906 -0.597656 2.773438 -0.597656 2.046875 -0.734375 C 1.328125 -0.878906 0.675781 -1.132812 0.09375 -1.5 L 0.515625 -3.03125 C 1.078125 -2.675781 1.664062 -2.429688 2.28125 -2.296875 C 2.894531 -2.160156 3.460938 -2.140625 3.984375 -2.234375 C 4.535156 -2.335938 4.945312 -2.519531 5.21875 -2.78125 C 5.488281 -3.050781 5.59375 -3.363281 5.53125 -3.71875 C 5.46875 -4.050781 5.289062 -4.300781 5 -4.46875 C 4.707031 -4.644531 4.359375 -4.75 3.953125 -4.78125 C 3.554688 -4.8125 3.125 -4.859375 2.65625 -4.921875 C 2.1875 -4.992188 1.742188 -5.078125 1.328125 -5.171875 C 0.921875 -5.265625 0.554688 -5.472656 0.234375 -5.796875 C -0.078125 -6.117188 -0.285156 -6.539062 -0.390625 -7.0625 C -0.535156 -7.875 -0.34375 -8.578125 0.1875 -9.171875 C 0.726562 -9.765625 1.519531 -10.15625 2.5625 -10.34375 Z M 2.5625 -10.34375 "/></g></g></g><g fill="#000000" fill-opacity="1"><g transform="translate(175.314497, 84.112336)"><g><path d="M 2.875 -0.21875 L 1.265625 -0.09375 L 0.546875 -9.703125 L 2.15625 -9.828125 Z M 2.875 -0.21875 "/></g></g></g><g fill="#000000" fill-opacity="1"><g transform="translate(188.487828, 83.474693)"><g><path d="M 8.0625 -4.40625 L 9.46875 -4.34375 L 9.3125 -0.796875 C 8.8125 -0.441406 8.21875 -0.164062 7.53125 0.03125 C 6.851562 0.238281 6.1875 0.328125 5.53125 0.296875 C 4.113281 0.234375 2.929688 -0.285156 1.984375 -1.265625 C 1.046875 -2.242188 0.609375 -3.421875 0.671875 -4.796875 C 0.734375 -6.171875 1.273438 -7.300781 2.296875 -8.1875 C 3.328125 -9.070312 4.570312 -9.484375 6.03125 -9.421875 C 6.71875 -9.390625 7.382812 -9.238281 8.03125 -8.96875 C 8.675781 -8.707031 9.21875 -8.363281 9.65625 -7.9375 L 8.703125 -6.765625 C 7.953125 -7.535156 7.039062 -7.945312 5.96875 -8 C 4.988281 -8.039062 4.144531 -7.742188 3.4375 -7.109375 C 2.738281 -6.472656 2.367188 -5.675781 2.328125 -4.71875 C 2.285156 -3.757812 2.59375 -2.9375 3.25 -2.25 C 3.90625 -1.5625 4.722656 -1.195312 5.703125 -1.15625 C 6.453125 -1.125 7.203125 -1.3125 7.953125 -1.71875 Z M 8.0625 -4.40625 "/></g></g></g><g fill="#000000" fill-opacity="1"><g transform="translate(207.653522, 84.887714)"><g><path d="M 9.46875 1.75 L 7.890625 1.453125 L 4.09375 -6.265625 L 2.84375 0.53125 L 1.25 0.234375 L 3 -9.25 L 4.5625 -8.96875 L 8.390625 -1.21875 L 9.640625 -8.03125 L 11.21875 -7.734375 Z M 9.46875 1.75 "/></g></g></g><g fill="#000000" fill-opacity="1"><g transform="translate(227.020531, 89.142018)"><g><path d="M 10.3125 -5.21875 L 5.3125 -6.859375 L 4.5 -4.390625 L 8.96875 -2.921875 L 8.5 -1.53125 L 4.03125 -3 L 3.203125 -0.46875 L 8.34375 1.21875 L 7.890625 2.59375 L 1.203125 0.390625 L 4.21875 -8.765625 L 10.765625 -6.609375 Z M 10.3125 -5.21875 "/></g></g></g><g fill="#000000" fill-opacity="1"><g transform="translate(243.910462, 95.298156)"><g><path d="M 6.640625 3.21875 L 6.3125 -0.1875 C 6.238281 -0.207031 6.109375 -0.265625 5.921875 -0.359375 L 3.875 -1.34375 L 2.609375 1.265625 L 1.140625 0.546875 L 5.34375 -8.125 L 8.859375 -6.421875 C 9.960938 -5.878906 10.695312 -5.203125 11.0625 -4.390625 C 11.425781 -3.578125 11.378906 -2.695312 10.921875 -1.75 C 10.585938 -1.0625 10.148438 -0.550781 9.609375 -0.21875 C 9.066406 0.101562 8.453125 0.238281 7.765625 0.1875 L 8.296875 4.015625 Z M 4.515625 -2.65625 L 6.5625 -1.671875 C 7.96875 -0.984375 8.953125 -1.222656 9.515625 -2.390625 C 10.054688 -3.515625 9.625 -4.421875 8.21875 -5.109375 L 6.171875 -6.09375 Z M 4.515625 -2.65625 "/></g></g></g><g fill="#000000" fill-opacity="1"><g transform="translate(107.896278, 279.545698)"><g><path d="M 5.921875 -7.703125 L 9.34375 -5.734375 C 10.59375 -5.015625 11.394531 -4.023438 11.75 -2.765625 C 12.101562 -1.503906 11.929688 -0.269531 11.234375 0.9375 C 10.535156 2.144531 9.550781 2.90625 8.28125 3.21875 C 7.007812 3.53125 5.738281 3.320312 4.46875 2.59375 L 1.09375 0.640625 Z M 6.59375 -5.625 L 3.234375 0.203125 L 5.296875 1.390625 C 6.109375 1.859375 6.941406 1.972656 7.796875 1.734375 C 8.648438 1.503906 9.320312 0.96875 9.8125 0.125 C 10.300781 -0.71875 10.425781 -1.578125 10.1875 -2.453125 C 9.945312 -3.328125 9.410156 -4.003906 8.578125 -4.484375 Z M 6.59375 -5.625 "/></g></g></g><g fill="#000000" fill-opacity="1"><g transform="translate(126.448595, 289.410785)"><g><path d="M 10.65625 -4.46875 L 5.78125 -6.46875 L 4.796875 -4.0625 L 9.15625 -2.265625 L 8.59375 -0.90625 L 4.234375 -2.703125 L 3.21875 -0.25 L 8.234375 1.8125 L 7.6875 3.15625 L 1.171875 0.484375 L 4.828125 -8.4375 L 11.203125 -5.828125 Z M 10.65625 -4.46875 "/></g></g></g><g fill="#000000" fill-opacity="1"><g transform="translate(144.593972, 296.145402)"><g><path d="M 5.375 1.421875 L 3.75 0.984375 L 2.515625 -9.296875 L 4.203125 -8.859375 L 5.0625 -0.515625 L 9.96875 -7.328125 L 11.609375 -6.890625 Z M 5.375 1.421875 "/></g></g></g><g fill="#000000" fill-opacity="1"><g transform="translate(163.921956, 300.542367)"><g><path d="M 9.140625 -7.078125 L 3.90625 -7.734375 L 3.5625 -5.15625 L 8.234375 -4.5625 L 8.046875 -3.109375 L 3.375 -3.703125 L 3.046875 -1.0625 L 8.4375 -0.375 L 8.25 1.0625 L 1.25 0.15625 L 2.46875 -9.40625 L 9.3125 -8.53125 Z M 9.140625 -7.078125 "/></g></g></g><g fill="#000000" fill-opacity="1"><g transform="translate(183.153404, 302.316988)"><g><path d="M 2.890625 -1.453125 L 7.0625 -1.4375 L 7.0625 0.03125 L 1.265625 0 L 1.296875 -9.640625 L 2.921875 -9.625 Z M 2.890625 -1.453125 "/></g></g></g><g fill="#000000" fill-opacity="1"><g transform="translate(200.825812, 301.837219)"><g><path d="M 0.875 -8.453125 C 1.726562 -9.503906 2.867188 -10.117188 4.296875 -10.296875 C 5.734375 -10.484375 6.992188 -10.175781 8.078125 -9.375 C 9.171875 -8.570312 9.804688 -7.488281 9.984375 -6.125 C 10.160156 -4.769531 9.820312 -3.5625 8.96875 -2.5 C 8.113281 -1.445312 6.96875 -0.828125 5.53125 -0.640625 C 4.101562 -0.460938 2.84375 -0.773438 1.75 -1.578125 C 0.664062 -2.390625 0.0351562 -3.472656 -0.140625 -4.828125 C -0.316406 -6.191406 0.0195312 -7.398438 0.875 -8.453125 Z M 4.5 -8.859375 C 3.550781 -8.742188 2.78125 -8.316406 2.1875 -7.578125 C 1.601562 -6.835938 1.375 -5.992188 1.5 -5.046875 C 1.625 -4.097656 2.066406 -3.335938 2.828125 -2.765625 C 3.585938 -2.191406 4.429688 -1.960938 5.359375 -2.078125 C 6.296875 -2.203125 7.054688 -2.632812 7.640625 -3.375 C 8.222656 -4.125 8.453125 -4.972656 8.328125 -5.921875 C 8.203125 -6.867188 7.765625 -7.625 7.015625 -8.1875 C 6.265625 -8.757812 5.425781 -8.984375 4.5 -8.859375 Z M 4.5 -8.859375 "/></g></g></g><g fill="#000000" fill-opacity="1"><g transform="translate(222.047535, 298.348196)"><g><path d="M -1.296875 -9.640625 L 2.421875 -10.640625 C 3.585938 -10.960938 4.566406 -10.929688 5.359375 -10.546875 C 6.148438 -10.160156 6.679688 -9.460938 6.953125 -8.453125 C 7.234375 -7.398438 7.128906 -6.5 6.640625 -5.75 C 6.160156 -5 5.335938 -4.460938 4.171875 -4.140625 L 2.03125 -3.5625 L 2.796875 -0.75 L 1.21875 -0.328125 Z M 0.65625 -8.640625 L 1.65625 -4.953125 L 3.71875 -5.515625 C 5.21875 -5.921875 5.800781 -6.75 5.46875 -8 C 5.132812 -9.207031 4.21875 -9.609375 2.71875 -9.203125 Z M 0.65625 -8.640625 "/></g></g></g><g fill="#000000" fill-opacity="1"><g transform="translate(240.762295, 292.579204)"><g><path d="M 4.390625 -10.6875 L -0.46875 -8.65625 L 0.53125 -6.265625 L 4.875 -8.078125 L 5.4375 -6.71875 L 1.09375 -4.90625 L 2.109375 -2.453125 L 7.109375 -4.53125 L 7.671875 -3.1875 L 1.171875 -0.484375 L -2.53125 -9.390625 L 3.828125 -12.046875 Z M 4.390625 -10.6875 "/></g></g></g><g fill="#000000" fill-opacity="1"><g transform="translate(258.377398, 284.537985)"><g><path d="M 6.375 -3.703125 L 3.375 -5.359375 C 3.300781 -5.304688 3.175781 -5.222656 3 -5.109375 L 1.03125 -3.96875 L 2.5 -1.453125 L 1.09375 -0.640625 L -3.75 -8.96875 L -0.375 -10.921875 C 0.6875 -11.546875 1.65625 -11.78125 2.53125 -11.625 C 3.40625 -11.476562 4.109375 -10.953125 4.640625 -10.046875 C 5.023438 -9.378906 5.203125 -8.726562 5.171875 -8.09375 C 5.140625 -7.46875 4.910156 -6.878906 4.484375 -6.328125 L 7.96875 -4.640625 Z M 0.3125 -5.21875 L 2.28125 -6.359375 C 3.632812 -7.148438 3.984375 -8.101562 3.328125 -9.21875 C 2.703125 -10.300781 1.710938 -10.445312 0.359375 -9.65625 L -1.609375 -8.515625 Z M 0.3125 -5.21875 "/></g></g></g></svg>